<svg width="21" height="28" viewBox="0 0 21 28" fill="none" xmlns="http://www.w3.org/2000/svg"><g clip-path="url(#clip0_8019_2354)"><path d="M14.3726 17.5366H3.73945L3.35327 18.8154H6.18676L6.72801 20.5798H11.3863L11.9252 18.8154H14.7587L14.3726 17.5366ZM5.47462 10.3502C5.28078 10.6191 5.14148 10.9238 5.06468 11.2468C4.98788 11.5699 4.97509 11.9051 5.02703 12.2331C5.07897 12.5612 5.19463 12.8757 5.3674 13.1588C5.54017 13.4418 5.76666 13.6878 6.03394 13.8828L8.57836 15.7434C8.64534 15.7923 8.70209 15.854 8.74537 15.925C8.78865 15.9959 8.81762 16.0748 8.83063 16.157C8.84363 16.2392 8.84041 16.3233 8.82115 16.4042C8.80189 16.4852 8.76697 16.5616 8.71838 16.629L9.10155 16.9078L10.446 15.0381C10.7575 14.6082 10.9254 14.0899 10.9255 13.5578C10.9256 13.4228 10.915 13.288 10.8939 13.1548C10.8421 12.8268 10.7261 12.5123 10.5529 12.2297C10.3796 11.947 10.1524 11.7016 9.88444 11.5078L7.34002 9.64718C7.27294 9.59857 7.21611 9.53704 7.17282 9.46617C7.12953 9.3953 7.10065 9.31649 7.08784 9.2343C7.08251 9.20072 7.07974 9.16679 7.07956 9.13278C7.07933 8.99987 7.12126 8.87035 7.19925 8.76309L6.81684 8.48354L5.47462 10.3502ZM7.00805 2.87066C6.5563 3.49418 6.313 4.24597 6.31322 5.01763C6.31328 5.21324 6.32863 5.40854 6.35914 5.60172C6.43366 6.07763 6.60115 6.53396 6.85195 6.94434C7.10275 7.35472 7.43187 7.71102 7.8203 7.99263L11.0189 10.3237C11.2271 10.4748 11.4036 10.6659 11.538 10.8861C11.6723 11.1062 11.762 11.351 11.8018 11.6063C11.8182 11.7095 11.8265 11.8139 11.8266 11.9184C11.8257 12.3324 11.6938 12.7355 11.4502 13.0691L11.7589 13.2957L14.2792 9.79036C14.5604 9.40038 14.7624 8.95847 14.8738 8.48988C14.9852 8.02129 15.0037 7.53521 14.9283 7.0594C14.853 6.5836 14.6852 6.12741 14.4346 5.71689C14.1839 5.30637 13.8554 4.94957 13.4677 4.66687L9.60591 1.84187C9.36484 1.66538 9.20326 1.39979 9.15668 1.10347C9.11009 0.807142 9.18232 0.504327 9.35749 0.261571L9.04885 0.0380859L7.00805 2.87066ZM0.474609 21.6479H3.38789C4.1053 21.6479 4.66763 21.8464 5.02822 22.207C5.16938 22.3466 5.28041 22.514 5.35437 22.6987C5.42833 22.8834 5.46363 23.0814 5.45806 23.2805V23.2957C5.45806 24.0085 5.08166 24.4055 4.62999 24.6593C5.35568 24.9396 5.80434 25.3631 5.80434 26.2116V26.2298C5.80434 27.3843 4.87239 27.9616 3.45564 27.9616H0.474609V21.6479ZM3.09205 24.201C3.70181 24.201 4.08723 24.0025 4.08723 23.5335V23.5154C4.08723 23.1002 3.76429 22.8661 3.18389 22.8661H1.81909V24.201H3.09205ZM3.45941 26.7449C4.06917 26.7449 4.43803 26.5282 4.43803 26.0631V26.0449C4.43803 25.6207 4.12412 25.3631 3.41575 25.3631H1.81909V26.7517L3.45941 26.7449ZM6.40807 21.6479H9.32136C10.0388 21.6479 10.6011 21.8464 10.9617 22.207C11.1025 22.3468 11.2132 22.5142 11.2869 22.6989C11.3606 22.8836 11.3957 23.0816 11.39 23.2805V23.2957C11.39 24.0085 11.0136 24.4055 10.562 24.6593C11.2884 24.9396 11.7363 25.3631 11.7363 26.2116V26.2298C11.7363 27.3843 10.8043 27.9616 9.3876 27.9616H6.40807V21.6479ZM9.02551 24.201C9.63527 24.201 10.0207 24.0025 10.0207 23.5335V23.5154C10.0207 23.1002 9.69775 22.8661 9.11735 22.8661H7.7533V24.201H9.02551ZM9.39287 26.7449C10.0026 26.7449 10.3715 26.5282 10.3715 26.0631V26.0449C10.3715 25.6207 10.0576 25.3631 9.34997 25.3631H7.7533V26.7517L9.39287 26.7449ZM12.3423 21.6479H15.2556C15.973 21.6479 16.5353 21.8464 16.8959 22.207C17.037 22.3466 17.148 22.514 17.222 22.6987C17.2959 22.8834 17.3313 23.0815 17.3257 23.2805V23.2957C17.3257 24.0085 16.9493 24.4055 16.4977 24.6593C17.2241 24.9396 17.672 25.3631 17.672 26.2116V26.2298C17.672 27.3843 16.7393 27.9616 15.3233 27.9616H12.3423V21.6479ZM14.9597 24.201C15.5695 24.201 15.9549 24.0025 15.9549 23.5335V23.5154C15.9549 23.1002 15.632 22.8661 15.0516 22.8661H13.689V24.201H14.9597ZM15.3271 26.7449C15.9368 26.7449 16.3057 26.5282 16.3057 26.0631V26.0449C16.3057 25.6207 15.9918 25.3631 15.2834 25.3631H13.6875V26.7517L15.3271 26.7449ZM17.9671 26.6426V26.6358C17.9662 26.2942 18.1002 25.9663 18.3395 25.7241C18.5789 25.482 18.9041 25.3454 19.2435 25.3445C19.5829 25.3436 19.9087 25.4784 20.1494 25.7193C20.39 25.9602 20.5257 26.2874 20.5266 26.629V26.6358C20.527 26.8049 20.4944 26.9725 20.4305 27.1289C20.3666 27.2853 20.2727 27.4276 20.1542 27.5475C20.0356 27.6674 19.8948 27.7626 19.7397 27.8278C19.5846 27.8929 19.4183 27.9267 19.2502 27.9271C18.9108 27.928 18.585 27.7932 18.3443 27.5523C18.1037 27.3114 17.968 26.9842 17.9671 26.6426ZM20.376 26.6358V26.629C20.3756 26.4798 20.3459 26.3321 20.2888 26.1944C20.2316 26.0567 20.1481 25.9317 20.0429 25.8265C19.9377 25.7213 19.813 25.6379 19.6758 25.5812C19.5387 25.5245 19.3918 25.4956 19.2435 25.496C19.0952 25.4965 18.9484 25.5263 18.8116 25.5838C18.6748 25.6414 18.5505 25.7254 18.446 25.8313C18.3415 25.9371 18.2587 26.0626 18.2023 26.2007C18.146 26.3387 18.1172 26.4866 18.1177 26.6358V26.6426C18.1181 26.7919 18.1478 26.9395 18.2049 27.0772C18.2621 27.2149 18.3456 27.34 18.4508 27.4452C18.556 27.5504 18.6807 27.6337 18.8179 27.6904C18.955 27.7471 19.102 27.776 19.2502 27.7756C19.3985 27.7751 19.5453 27.7453 19.6821 27.6878C19.8189 27.6303 19.9432 27.5462 20.0477 27.4403C20.1522 27.3345 20.235 27.209 20.2914 27.0709C20.3477 26.9329 20.3765 26.785 20.376 26.6358ZM18.7199 25.9146H19.3221C19.3987 25.9103 19.4753 25.9215 19.5474 25.9476C19.6195 25.9736 19.6858 26.0139 19.7422 26.0661C19.7798 26.1058 19.8092 26.1526 19.8286 26.2039C19.848 26.2551 19.857 26.3098 19.8551 26.3646V26.3714C19.859 26.4645 19.8324 26.5563 19.7793 26.6327C19.7263 26.7091 19.6497 26.7658 19.5615 26.7941L19.8935 27.2843H19.5435L19.2536 26.8434H19.0173V27.2843H18.7161L18.7199 25.9146ZM19.3221 26.5828C19.4727 26.5828 19.5555 26.501 19.5555 26.3873V26.3805C19.5555 26.2495 19.4637 26.1813 19.3154 26.1813H19.0218V26.5828H19.3221Z" fill="#3A3E4A"/></g><defs><clipPath id="clip0_8019_2354"><rect width="20.125" height="28" fill="white" transform="translate(0.4375)"/></clipPath></defs></svg>