<svg width="28" height="28" viewBox="0 0 28 28" fill="none" xmlns="http://www.w3.org/2000/svg"><g clip-path="url(#clip0_5520_5144)"><path d="M14 9.91683L16.4687 15.8528L22.876 16.3662L17.9947 20.5475L19.4857 26.8008L14 23.4502L8.51436 26.8008L10.0054 20.5475L5.12402 16.3662L11.5314 15.8528L14 9.91683ZM14 15.9917L13.1379 18.0648L10.9025 18.2433L12.6059 19.7028L12.0844 21.8857L14 20.7155L15.9145 21.8857L15.3942 19.704L17.0964 18.2433L14.8622 18.0648L14 15.9917ZM9.33336 2.3335V12.8335H7.00002V2.3335H9.33336ZM21 2.3335V12.8335H18.6667V2.3335H21ZM15.1667 2.3335V8.16683H12.8334V2.3335H15.1667Z" fill="#3D475F"/></g><defs><clipPath id="clip0_5520_5144"><rect width="28" height="28" fill="white"/></clipPath></defs></svg>